<svg xmlns="http://www.w3.org/2000/svg" viewBox="0 0 360 360"><g data-paper-data="{&quot;isPaintingLayer&quot;:true}" stroke-miterlimit="10" style="mix-blend-mode:normal"><path d="M0 360V0h360v360z"/><path d="M180 41a139 139 0 1 1 0 278 139 139 0 0 1 0-278z" data-paper-data="{&quot;index&quot;:null}" fill="#f1cd43"/><path d="M180 154a26 26 0 1 1 0 52 26 26 0 0 1 0-52zm132 26c0 47-26 90-66 114l-46-80c12-7 19-20 19-34z" data-paper-data="{&quot;index&quot;:null}"/><path d="M207 180a26 26 0 1 1-53 0 26 26 0 0 1 53 0zm-66 0c0 14 8 27 20 34l-46 80c-41-24-66-67-66-114z" data-paper-data="{&quot;index&quot;:null}"/><path d="M168 202a26 26 0 1 1 26-46 26 26 0 0 1-26 46zm32-57c-12-7-27-7-39 0l-47-79c41-24 91-24 132-1z" data-paper-data="{&quot;index&quot;:null}"/></g></svg>